<?xml version="1.0" encoding="utf-8"?>
<!-- Generator: Adobe Illustrator 15.0.0, SVG Export Plug-In  -->
<!DOCTYPE svg PUBLIC "-//W3C//DTD SVG 1.1//EN" "http://www.w3.org/Graphics/SVG/1.1/DTD/svg11.dtd" [
	<!ENTITY ns_flows "http://ns.adobe.com/Flows/1.0/">
]>
<svg version="1.1"
	 xmlns="http://www.w3.org/2000/svg" xmlns:xlink="http://www.w3.org/1999/xlink" xmlns:a="http://ns.adobe.com/AdobeSVGViewerExtensions/3.0/"
	 x="0px" y="0px" width="16px" height="15px" viewBox="0 0 16 15" enable-background="new 0 0 16 15" xml:space="preserve">
<defs>
</defs>
<polygon fill="#676767" points="12.028,13.913 3.972,13.913 3.972,9.564 2.966,9.564 2.966,15 13.035,15 13.035,9.564 12.028,9.564 
	"/>
<polygon fill="#676767" points="5.974,13.236 11.446,13.236 11.446,12.282 10.427,12.282 10.579,12.3 5.974,12.3 "/>
<polygon fill="#676767" points="7.019,11.798 11.446,11.798 11.446,10.842 10.622,10.842 10.744,10.859 7.019,10.859 "/>
<path fill="#676767" d="M13.035,4.002V0H2.966v4.002H0v7.795h2.088V8.839h11.823v2.959H16V4.002H13.035z M10.777,7.162
	c-0.368,0-0.667-0.301-0.667-0.674c0-0.374,0.299-0.675,0.667-0.675s0.669,0.301,0.669,0.675
	C11.446,6.861,11.145,7.162,10.777,7.162z M12.028,4.002H3.972V1.087h8.056V4.002z M13.035,7.162c-0.368,0-0.668-0.301-0.668-0.674
	c0-0.374,0.3-0.675,0.668-0.675s0.668,0.301,0.668,0.675C13.703,6.861,13.403,7.162,13.035,7.162z"/>
</svg>
